<svg width="58" height="58" viewBox="0 0 58 58" fill="none" xmlns="http://www.w3.org/2000/svg">
<rect width="58" height="58" rx="12" fill="#D5FFB8"/>
<path d="M30 32C29.4477 32 29 32.4477 29 33C29 33.5523 29.4477 34 30 34C30.5523 34 31 33.5523 31 33C31 32.4477 30.5523 32 30 32Z" fill="#115814"/>
<path d="M27 34C26.4477 34 26 34.4477 26 35C26 35.5523 26.4477 36 27 36C27.5523 36 28 35.5523 28 35C28 34.4477 27.5523 34 27 34Z" fill="#115814"/>
<path fill-rule="evenodd" clip-rule="evenodd" d="M31.4931 20.25L31.4902 20.25H26.5098L26.5068 20.25H25.5C25.0858 20.25 24.75 20.5858 24.75 21C24.75 21.4142 25.0858 21.75 25.5 21.75H25.7598V26.837C25.7598 28.2914 25.3224 29.7121 24.5044 30.9147L21.4106 35.4629C20.6249 36.6179 21.3492 38.194 22.7373 38.3502C26.8993 38.8184 31.1007 38.8184 35.2627 38.3502C36.6508 38.194 37.375 36.6179 36.5894 35.4629L33.4956 30.9147C32.6776 29.7121 32.2402 28.2914 32.2402 26.837V21.75H32.5C32.9142 21.75 33.25 21.4142 33.25 21C33.25 20.5858 32.9142 20.25 32.5 20.25H31.4931ZM22.905 36.8596C26.9555 37.3153 31.0444 37.3153 35.095 36.8596C35.3609 36.8297 35.4996 36.5278 35.3491 36.3065L32.2553 31.7583C32.035 31.4345 31.8376 31.0976 31.6639 30.75H26.3361C26.1623 31.0976 25.9649 31.4345 25.7446 31.7583L22.6508 36.3065C22.5004 36.5278 22.6391 36.8297 22.905 36.8596ZM26.9205 29.25H31.0795C30.8556 28.4697 30.7402 27.6578 30.7402 26.837V21.75L27.2598 21.75V26.837C27.2598 27.6578 27.1443 28.4697 26.9205 29.25Z" fill="#115814"/>
</svg>
