<svg width="58" height="58" viewBox="0 0 58 58" fill="none" xmlns="http://www.w3.org/2000/svg">
<path d="M0 12C0 5.37258 5.37258 0 12 0L46 0C52.6274 0 58 5.37258 58 12V46C58 52.6274 52.6274 58 46 58H12C5.37258 58 0 52.6274 0 46L0 12Z" fill="#D5C2FF" fill-opacity="0.56"/>
<path d="M43 29H14M43 26.5H17.625C15.8125 26.5 14 24.9716 14 22.75C14 20.5284 15.5489 19 17.625 19C19.4375 19 20.6483 19.8507 21.3069 21.104M43 31.5H30.9167C29.1709 31.5 27.2917 33.0284 27.2917 35.25C27.2917 37.4716 28.7024 39 30.8499 39C32.3259 39 33.6098 38.1493 34.2684 36.896" stroke="#361380" stroke-linecap="round"/>
</svg>
